# xmcd CD database file
#
# Track frame offsets:
#	150
#	17732
#	35700
#
# Disc length: 775 seconds
#
# Revision: 0
# Processed by: cddbd v1.5.1PL0 Copyright (c) Steve Scherf et al.
# Submitted via: CDex 1.51
#
DISCID=1e030503
DTITLE=イノトモ - 愛のコロッケ
DYEAR=1998
DGENRE=JPop
TTITLE0=愛のコロッケ
TTITLE1=現実逃避
TTITLE2=まるい空気
EXTD=YEAR: 1998.08/26
EXTT0=
EXTT1=
EXTT2=
PLAYORDER=
